# xmcd CD database file
#
# Track frame offsets:
#	150
#	18372
#	39060
#	60828
#	102189
#	124317
#	163905
#	195258
#
# Disc length: 2798 seconds
#
# Revision: 0
# Processed by: cddbd v1.5.2PL0 Copyright (c) Steve Scherf et al.
# Submitted via: CDex 1.51
#
DISCID=570aec08
DTITLE=Michael Nitsch Band - time
DYEAR=2013
DGENRE=Jazz
TTITLE0=Dawn
TTITLE1=Freedom
TTITLE2=Uncle Jack
TTITLE3=Time
TTITLE4=They will return
TTITLE5=Overberg
TTITLE6=Wounded Knee
TTITLE7=Mousie
EXTD=YEAR: 2013
EXTT0=
EXTT1=
EXTT2=
EXTT3=
EXTT4=
EXTT5=
EXTT6=
EXTT7=
PLAYORDER=
